<svg width="64" height="64" viewBox="0 0 64 64" fill="none" xmlns="http://www.w3.org/2000/svg">
<path fill-rule="evenodd" clip-rule="evenodd" d="M32 64C49.6731 64 64 49.6731 64 32C64 14.3269 49.6731 0 32 0C14.3269 0 0 14.3269 0 32C0 34.6312 0.317574 37.1883 0.916483 39.6349L1.708 35.138C1.75467 34.8673 1.89467 34.6433 2.128 34.466C2.36133 34.2887 2.62267 34.2 2.912 34.2H6.58C7.476 34.2 8.162 34.4053 8.638 34.816C9.12333 35.2173 9.366 35.796 9.366 36.552C9.366 37.2707 9.212 37.8867 8.904 38.4C8.596 38.9133 8.14333 39.3007 7.546 39.562V39.618C8.15267 39.926 8.456 40.43 8.456 41.13C8.456 41.2327 8.43733 41.4147 8.4 41.676L8.232 42.642C8.148 43.1273 7.90533 43.496 7.504 43.748C7.112 44 6.58 44.126 5.908 44.126L6.328 41.746C6.356 41.578 6.37 41.4193 6.37 41.27C6.37 40.9713 6.29533 40.752 6.146 40.612C5.99667 40.4627 5.768 40.388 5.46 40.388H2.814L2.422 42.642C2.37033 42.9405 2.2604 43.1949 2.09221 43.4051C6.68682 55.4466 18.3445 64 32 64ZM2.128 21.48C1.89467 21.6573 1.75467 21.8767 1.708 22.138L0.308 30.062C0.298667 30.0993 0.294 30.1553 0.294 30.23C0.294 30.454 0.373333 30.6407 0.532 30.79C0.7 30.93 0.914667 31 1.176 31H7.714C7.76067 30.72 7.784 30.4913 7.784 30.314C7.784 29.9407 7.69533 29.67 7.518 29.502C7.35 29.3247 7.08867 29.236 6.734 29.236H2.506L2.912 26.94H5.278C5.73533 26.94 6.09467 26.8 6.356 26.52C6.61733 26.2307 6.79933 25.7827 6.902 25.176H3.234L3.612 22.964H7.546C8.00333 22.964 8.36267 22.824 8.624 22.544C8.88533 22.2547 9.06733 21.8067 9.17 21.2H2.912C2.62267 21.2 2.36133 21.2933 2.128 21.48ZM9.84113 30.538C10.3358 30.93 10.9985 31.126 11.8291 31.126C12.4731 31.126 13.0425 31.0373 13.5371 30.86C14.0411 30.6827 14.4285 30.44 14.6991 30.132C14.9791 29.8147 15.1191 29.4507 15.1191 29.04C15.1191 28.7973 14.9838 28.6013 14.7131 28.452C14.4518 28.2933 14.1065 28.214 13.6771 28.214C13.6025 28.5873 13.4251 28.8907 13.1451 29.124C12.8745 29.3573 12.5525 29.474 12.1791 29.474C11.8431 29.474 11.5725 29.39 11.3671 29.222C11.1711 29.054 11.0731 28.8347 11.0731 28.564C11.0731 28.48 11.0778 28.4147 11.0871 28.368L11.3671 26.744C11.4325 26.3893 11.6051 26.1 11.8851 25.876C12.1651 25.6427 12.4918 25.526 12.8651 25.526C13.1918 25.526 13.4485 25.6193 13.6351 25.806C13.8311 25.9927 13.9291 26.24 13.9291 26.548C13.9291 26.604 13.9198 26.688 13.9011 26.8C14.4238 26.8 14.8485 26.688 15.1751 26.464C15.5111 26.24 15.6791 25.9507 15.6791 25.596C15.6791 25.0827 15.4365 24.6673 14.9511 24.35C14.4751 24.0327 13.8545 23.874 13.0891 23.874C12.4731 23.874 11.9038 23.9907 11.3811 24.224C10.8678 24.4573 10.4431 24.784 10.1071 25.204C9.77112 25.624 9.55646 26.1047 9.46313 26.646L9.14112 28.508C9.11312 28.6573 9.09912 28.8067 9.09912 28.956C9.09912 29.6093 9.34646 30.1367 9.84113 30.538ZM18.6546 21.452C18.2719 21.704 18.0386 22.0633 17.9546 22.53L16.4426 31.126C17.1052 31.126 17.6046 31.0373 17.9406 30.86C18.2859 30.6827 18.4912 30.398 18.5566 30.006L19.0746 27.052C19.1492 26.6133 19.3546 26.2493 19.6906 25.96C20.0266 25.6707 20.4186 25.526 20.8666 25.526C21.1839 25.526 21.4266 25.6007 21.5946 25.75C21.7626 25.8993 21.8466 26.1093 21.8466 26.38C21.8466 26.4267 21.8372 26.5153 21.8186 26.646L21.0346 31.126C21.6879 31.126 22.1826 31.0373 22.5186 30.86C22.8639 30.6733 23.0739 30.3887 23.1486 30.006L23.7926 26.352C23.8206 26.1933 23.8346 26.044 23.8346 25.904C23.8346 25.316 23.6432 24.8307 23.2606 24.448C22.8872 24.0653 22.4066 23.874 21.8186 23.874C20.8479 23.874 19.9566 24.3267 19.1446 25.232L19.0606 25.176C19.1726 25.036 19.3172 24.8773 19.4946 24.7L20.1386 21.074C19.5319 21.074 19.0372 21.2 18.6546 21.452ZM25.9771 30.832C26.4158 31.028 26.9104 31.126 27.4611 31.126C28.4598 31.126 29.2998 30.8927 29.9811 30.426C30.6718 29.95 31.0871 29.3107 31.2271 28.508L31.5491 26.646C31.5771 26.4873 31.5911 26.338 31.5911 26.198C31.5911 25.75 31.4744 25.3533 31.2411 25.008C31.0078 24.6533 30.6764 24.378 30.2471 24.182C29.8178 23.9767 29.3138 23.874 28.7351 23.874C27.6991 23.874 26.8451 24.126 26.1731 24.63C25.5011 25.134 25.0904 25.806 24.9411 26.646L24.6191 28.508C24.6004 28.592 24.5911 28.7133 24.5911 28.872C24.5911 29.292 24.7124 29.6747 24.9551 30.02C25.1978 30.356 25.5384 30.6267 25.9771 30.832ZM28.8191 29.18C28.5484 29.376 28.1938 29.474 27.7551 29.474C27.3724 29.474 27.0738 29.3993 26.8591 29.25C26.6538 29.0913 26.5511 28.872 26.5511 28.592C26.5511 28.4893 26.5558 28.4147 26.5651 28.368L26.8451 26.744C26.9104 26.38 27.0878 26.086 27.3771 25.862C27.6664 25.638 28.0258 25.526 28.4551 25.526C28.8284 25.526 29.1178 25.6147 29.3231 25.792C29.5378 25.96 29.6451 26.198 29.6451 26.506C29.6451 26.5527 29.6358 26.632 29.6171 26.744L29.3371 28.368C29.2718 28.7133 29.0991 28.984 28.8191 29.18ZM6.846 38.162C6.55667 38.4793 6.16933 38.638 5.684 38.638H3.122L3.598 35.95H6.16C6.90667 35.95 7.28 36.258 7.28 36.874C7.28 37.4153 7.13533 37.8447 6.846 38.162ZM11.2774 43.832C11.7068 44.028 12.1828 44.126 12.7054 44.126C13.2748 44.126 13.8021 44.0467 14.2874 43.888C14.7821 43.72 15.1741 43.496 15.4634 43.216C15.7528 42.936 15.8974 42.6373 15.8974 42.32C15.8974 41.8253 15.5428 41.578 14.8334 41.578C14.7681 41.578 14.6328 41.5873 14.4274 41.606C14.3808 41.9233 14.2268 42.1707 13.9654 42.348C13.7134 42.5253 13.3868 42.614 12.9854 42.614C12.6121 42.614 12.3274 42.5253 12.1314 42.348C11.9354 42.1707 11.8374 41.9187 11.8374 41.592C11.8374 41.48 11.8421 41.396 11.8514 41.34L11.8794 41.144H15.4074C15.6688 41.144 15.8928 41.0693 16.0794 40.92C16.2754 40.7707 16.3968 40.5793 16.4434 40.346L16.5834 39.59C16.6114 39.422 16.6254 39.2633 16.6254 39.114C16.6254 38.6847 16.5134 38.302 16.2894 37.966C16.0748 37.6207 15.7668 37.3547 15.3654 37.168C14.9734 36.972 14.5161 36.874 13.9934 36.874C13.3681 36.874 12.7894 36.9953 12.2574 37.238C11.7348 37.4713 11.2961 37.8027 10.9414 38.232C10.5961 38.652 10.3768 39.1373 10.2834 39.688L9.96144 41.48C9.94277 41.564 9.93344 41.69 9.93344 41.858C9.93344 42.278 10.0501 42.6607 10.2834 43.006C10.5261 43.3513 10.8574 43.6267 11.2774 43.832ZM14.8894 39.282C14.8894 39.3753 14.8754 39.478 14.8474 39.59L14.8054 39.786H12.1174L12.1594 39.59C12.2341 39.2167 12.4114 38.9227 12.6914 38.708C12.9808 38.484 13.3214 38.372 13.7134 38.372C14.0961 38.372 14.3854 38.4513 14.5814 38.61C14.7868 38.7687 14.8894 38.9927 14.8894 39.282ZM18.56 43.538C19.0546 43.93 19.7173 44.126 20.548 44.126C21.192 44.126 21.7613 44.0373 22.256 43.86C22.76 43.6827 23.1473 43.44 23.418 43.132C23.698 42.8147 23.838 42.4507 23.838 42.04C23.838 41.7973 23.7026 41.6013 23.432 41.452C23.1706 41.2933 22.8253 41.214 22.396 41.214C22.3213 41.5873 22.144 41.8907 21.864 42.124C21.5933 42.3573 21.2713 42.474 20.898 42.474C20.562 42.474 20.2913 42.39 20.086 42.222C19.89 42.054 19.792 41.8347 19.792 41.564C19.792 41.48 19.7966 41.4147 19.806 41.368L20.086 39.744C20.1513 39.3893 20.324 39.1 20.604 38.876C20.884 38.6427 21.2106 38.526 21.584 38.526C21.9106 38.526 22.1673 38.6193 22.354 38.806C22.55 38.9927 22.648 39.24 22.648 39.548C22.648 39.604 22.6386 39.688 22.62 39.8C23.1426 39.8 23.5673 39.688 23.894 39.464C24.23 39.24 24.398 38.9507 24.398 38.596C24.398 38.0827 24.1553 37.6673 23.67 37.35C23.194 37.0327 22.5733 36.874 21.808 36.874C21.192 36.874 20.6226 36.9907 20.1 37.224C19.5866 37.4573 19.162 37.784 18.826 38.204C18.49 38.624 18.2753 39.1047 18.182 39.646L17.86 41.508C17.832 41.6573 17.818 41.8067 17.818 41.956C17.818 42.6093 18.0653 43.1367 18.56 43.538ZM26.3599 43.832C26.7986 44.028 27.2933 44.126 27.8439 44.126C28.8426 44.126 29.6826 43.8927 30.3639 43.426C31.0546 42.95 31.4699 42.3107 31.6099 41.508L31.9319 39.646C31.9599 39.4873 31.9739 39.338 31.9739 39.198C31.9739 38.75 31.8573 38.3533 31.6239 38.008C31.3906 37.6533 31.0593 37.378 30.6299 37.182C30.2006 36.9767 29.6966 36.874 29.1179 36.874C28.0819 36.874 27.2279 37.126 26.5559 37.63C25.8839 38.134 25.4733 38.806 25.3239 39.646L25.0019 41.508C24.9833 41.592 24.9739 41.7133 24.9739 41.872C24.9739 42.292 25.0953 42.6747 25.3379 43.02C25.5806 43.356 25.9213 43.6267 26.3599 43.832ZM29.2019 42.18C28.9313 42.376 28.5766 42.474 28.1379 42.474C27.7553 42.474 27.4566 42.3993 27.2419 42.25C27.0366 42.0913 26.9339 41.872 26.9339 41.592C26.9339 41.4893 26.9386 41.4147 26.9479 41.368L27.2279 39.744C27.2933 39.38 27.4706 39.086 27.7599 38.862C28.0493 38.638 28.4086 38.526 28.8379 38.526C29.2113 38.526 29.5006 38.6147 29.7059 38.792C29.9206 38.96 30.0279 39.198 30.0279 39.506C30.0279 39.5527 30.0186 39.632 29.9999 39.744L29.7199 41.368C29.6546 41.7133 29.4819 41.984 29.2019 42.18ZM36.1598 38.96C36.5705 38.6707 37.0511 38.526 37.6018 38.526C38.0591 38.526 38.3951 38.6007 38.6098 38.75C38.7218 38.6193 38.8058 38.47 38.8618 38.302C38.9271 38.134 38.9598 37.9707 38.9598 37.812C38.9598 37.5133 38.8618 37.2847 38.6658 37.126C38.4791 36.958 38.2131 36.874 37.8678 36.874C37.0091 36.874 36.1971 37.3267 35.4318 38.232L35.3478 38.176C35.4505 38.0453 35.5951 37.8867 35.7818 37.7L35.9218 36.874C35.3245 36.874 34.8485 37 34.4938 37.252C34.1391 37.4947 33.9198 37.854 33.8358 38.33L32.8138 44.126C33.4858 44.126 33.9851 44.0373 34.3118 43.86C34.6478 43.6827 34.8531 43.398 34.9278 43.006L35.4458 40.052C35.5205 39.604 35.7585 39.24 36.1598 38.96ZM40.1986 43.846C40.5439 44.0327 40.9313 44.126 41.3606 44.126C41.8646 44.126 42.3079 44.0373 42.6906 43.86C43.0733 43.6733 43.4559 43.3653 43.8386 42.936L43.8946 42.992C43.8293 43.0853 43.7173 43.2113 43.5586 43.37L43.4326 44.126C43.9739 44.126 44.4219 44.014 44.7766 43.79C45.1313 43.5567 45.3459 43.244 45.4206 42.852L46.9746 34.074C46.3399 34.074 45.8359 34.1813 45.4626 34.396C45.0986 34.6107 44.8793 34.9233 44.8046 35.334L44.4546 37.266C44.5853 37.378 44.6739 37.4713 44.7206 37.546L44.6506 37.616C44.4546 37.4013 44.1886 37.224 43.8526 37.084C43.5166 36.944 43.1806 36.874 42.8446 36.874C42.2846 36.874 41.7666 36.9813 41.2906 37.196C40.8239 37.4107 40.4366 37.714 40.1286 38.106C39.8206 38.4887 39.6246 38.9273 39.5406 39.422L39.1626 41.578C39.1346 41.718 39.1206 41.8627 39.1206 42.012C39.1206 42.404 39.2139 42.7633 39.4006 43.09C39.5966 43.4073 39.8626 43.6593 40.1986 43.846ZM43.2506 42.208C42.9706 42.3853 42.6393 42.474 42.2566 42.474C41.8739 42.474 41.5799 42.404 41.3746 42.264C41.1786 42.124 41.0806 41.9233 41.0806 41.662C41.0806 41.6247 41.0899 41.55 41.1086 41.438L41.4446 39.548C41.5006 39.2213 41.6593 38.9693 41.9206 38.792C42.1819 38.6147 42.5226 38.526 42.9426 38.526C43.2879 38.526 43.5679 38.6053 43.7826 38.764C43.9973 38.9133 44.1046 39.1093 44.1046 39.352C44.1046 39.4173 44.0999 39.464 44.0906 39.492L43.7406 41.508C43.6939 41.788 43.5306 42.0213 43.2506 42.208ZM48.1553 43.72C48.6966 43.9907 49.406 44.126 50.2833 44.126C51.3566 44.126 52.192 43.9207 52.7893 43.51C53.396 43.0993 53.6993 42.516 53.6993 41.76C53.6993 40.6773 52.822 39.9493 51.0673 39.576C50.61 39.4827 50.288 39.3847 50.1013 39.282C49.9146 39.1793 49.8213 39.058 49.8213 38.918C49.8213 38.7407 49.952 38.5913 50.2133 38.47C50.484 38.3393 50.806 38.274 51.1793 38.274C51.618 38.274 51.9493 38.358 52.1733 38.526C52.3973 38.694 52.542 38.96 52.6073 39.324C53.1206 39.3147 53.4846 39.2353 53.6993 39.086C53.9233 38.9273 54.0353 38.68 54.0353 38.344C54.0353 37.9053 53.7646 37.5507 53.2233 37.28C52.682 37.0093 51.9913 36.874 51.1513 36.874C50.1526 36.874 49.3733 37.0747 48.8133 37.476C48.2626 37.8773 47.9873 38.442 47.9873 39.17C47.9873 39.6273 48.1693 40.0053 48.5333 40.304C48.9066 40.6027 49.5506 40.864 50.4653 41.088C50.96 41.2093 51.3146 41.3353 51.5293 41.466C51.7533 41.5967 51.8653 41.7413 51.8653 41.9C51.8653 42.1427 51.7253 42.334 51.4453 42.474C51.1653 42.6047 50.7733 42.67 50.2693 42.67C49.8586 42.67 49.5226 42.5627 49.2613 42.348C49.0093 42.124 48.8786 41.8347 48.8693 41.48C48.384 41.48 48.0106 41.578 47.7493 41.774C47.488 41.97 47.3573 42.2453 47.3573 42.6C47.3573 43.0667 47.6233 43.44 48.1553 43.72Z" fill="black"/>
<path d="M1.708 22.138C1.75467 21.8767 1.89467 21.6573 2.128 21.48C2.36133 21.2933 2.62267 21.2 2.912 21.2H9.17C9.06733 21.8067 8.88533 22.2547 8.624 22.544C8.36267 22.824 8.00333 22.964 7.546 22.964H3.612L3.234 25.176H6.902C6.79933 25.7827 6.61733 26.2307 6.356 26.52C6.09467 26.8 5.73533 26.94 5.278 26.94H2.912L2.506 29.236H6.734C7.08867 29.236 7.35 29.3247 7.518 29.502C7.69533 29.67 7.784 29.9407 7.784 30.314C7.784 30.4913 7.76067 30.72 7.714 31H1.176C0.914667 31 0.7 30.93 0.532 30.79C0.373333 30.6407 0.294 30.454 0.294 30.23C0.294 30.1553 0.298667 30.0993 0.308 30.062L1.708 22.138ZM11.8291 31.126C10.9985 31.126 10.3358 30.93 9.84113 30.538C9.34646 30.1367 9.09913 29.6093 9.09913 28.956C9.09913 28.8067 9.11313 28.6573 9.14113 28.508L9.46313 26.646C9.55646 26.1047 9.77113 25.624 10.1071 25.204C10.4431 24.784 10.8678 24.4573 11.3811 24.224C11.9038 23.9907 12.4731 23.874 13.0891 23.874C13.8545 23.874 14.4751 24.0327 14.9511 24.35C15.4365 24.6673 15.6791 25.0827 15.6791 25.596C15.6791 25.9507 15.5111 26.24 15.1751 26.464C14.8485 26.688 14.4238 26.8 13.9011 26.8C13.9198 26.688 13.9291 26.604 13.9291 26.548C13.9291 26.24 13.8311 25.9927 13.6351 25.806C13.4485 25.6193 13.1918 25.526 12.8651 25.526C12.4918 25.526 12.1651 25.6427 11.8851 25.876C11.6051 26.1 11.4325 26.3893 11.3671 26.744L11.0871 28.368C11.0778 28.4147 11.0731 28.48 11.0731 28.564C11.0731 28.8347 11.1711 29.054 11.3671 29.222C11.5725 29.39 11.8431 29.474 12.1791 29.474C12.5525 29.474 12.8745 29.3573 13.1451 29.124C13.4251 28.8907 13.6025 28.5873 13.6771 28.214C14.1065 28.214 14.4518 28.2933 14.7131 28.452C14.9838 28.6013 15.1191 28.7973 15.1191 29.04C15.1191 29.4507 14.9791 29.8147 14.6991 30.132C14.4285 30.44 14.0411 30.6827 13.5371 30.86C13.0425 31.0373 12.4731 31.126 11.8291 31.126ZM17.9546 22.53C18.0386 22.0633 18.2719 21.704 18.6546 21.452C19.0372 21.2 19.5319 21.074 20.1386 21.074L19.4946 24.7C19.3172 24.8773 19.1726 25.036 19.0606 25.176L19.1446 25.232C19.9566 24.3267 20.8479 23.874 21.8186 23.874C22.4066 23.874 22.8872 24.0653 23.2606 24.448C23.6432 24.8307 23.8346 25.316 23.8346 25.904C23.8346 26.044 23.8206 26.1933 23.7926 26.352L23.1486 30.006C23.0739 30.3887 22.8639 30.6733 22.5186 30.86C22.1826 31.0373 21.6879 31.126 21.0346 31.126L21.8186 26.646C21.8372 26.5153 21.8466 26.4267 21.8466 26.38C21.8466 26.1093 21.7626 25.8993 21.5946 25.75C21.4266 25.6007 21.1839 25.526 20.8666 25.526C20.4186 25.526 20.0266 25.6707 19.6906 25.96C19.3546 26.2493 19.1492 26.6133 19.0746 27.052L18.5566 30.006C18.4912 30.398 18.2859 30.6827 17.9406 30.86C17.6046 31.0373 17.1052 31.126 16.4426 31.126L17.9546 22.53ZM27.4611 31.126C26.9104 31.126 26.4158 31.028 25.9771 30.832C25.5384 30.6267 25.1978 30.356 24.9551 30.02C24.7124 29.6747 24.5911 29.292 24.5911 28.872C24.5911 28.7133 24.6004 28.592 24.6191 28.508L24.9411 26.646C25.0904 25.806 25.5011 25.134 26.1731 24.63C26.8451 24.126 27.6991 23.874 28.7351 23.874C29.3138 23.874 29.8178 23.9767 30.2471 24.182C30.6764 24.378 31.0078 24.6533 31.2411 25.008C31.4744 25.3533 31.5911 25.75 31.5911 26.198C31.5911 26.338 31.5771 26.4873 31.5491 26.646L31.2271 28.508C31.0871 29.3107 30.6718 29.95 29.9811 30.426C29.2998 30.8927 28.4598 31.126 27.4611 31.126ZM27.7551 29.474C28.1938 29.474 28.5484 29.376 28.8191 29.18C29.0991 28.984 29.2718 28.7133 29.3371 28.368L29.6171 26.744C29.6358 26.632 29.6451 26.5527 29.6451 26.506C29.6451 26.198 29.5378 25.96 29.3231 25.792C29.1178 25.6147 28.8284 25.526 28.4551 25.526C28.0258 25.526 27.6664 25.638 27.3771 25.862C27.0878 26.086 26.9104 26.38 26.8451 26.744L26.5651 28.368C26.5558 28.4147 26.5511 28.4893 26.5511 28.592C26.5511 28.872 26.6538 29.0913 26.8591 29.25C27.0738 29.3993 27.3724 29.474 27.7551 29.474ZM1.708 35.138C1.75467 34.8673 1.89467 34.6433 2.128 34.466C2.36133 34.2887 2.62267 34.2 2.912 34.2H6.58C7.476 34.2 8.162 34.4053 8.638 34.816C9.12333 35.2173 9.366 35.796 9.366 36.552C9.366 37.2707 9.212 37.8867 8.904 38.4C8.596 38.9133 8.14333 39.3007 7.546 39.562V39.618C8.15267 39.926 8.456 40.43 8.456 41.13C8.456 41.2327 8.43733 41.4147 8.4 41.676L8.232 42.642C8.148 43.1273 7.90533 43.496 7.504 43.748C7.112 44 6.58 44.126 5.908 44.126L6.328 41.746C6.356 41.578 6.37 41.4193 6.37 41.27C6.37 40.9713 6.29533 40.752 6.146 40.612C5.99667 40.4627 5.768 40.388 5.46 40.388H2.814L2.422 42.642C2.338 43.1273 2.1 43.496 1.708 43.748C1.32533 44 0.798 44.126 0.126 44.126L1.708 35.138ZM5.684 38.638C6.16933 38.638 6.55667 38.4793 6.846 38.162C7.13533 37.8447 7.28 37.4153 7.28 36.874C7.28 36.258 6.90667 35.95 6.16 35.95H3.598L3.122 38.638H5.684ZM12.7054 44.126C12.1828 44.126 11.7068 44.028 11.2774 43.832C10.8574 43.6267 10.5261 43.3513 10.2834 43.006C10.0501 42.6607 9.93344 42.278 9.93344 41.858C9.93344 41.69 9.94277 41.564 9.96144 41.48L10.2834 39.688C10.3768 39.1373 10.5961 38.652 10.9414 38.232C11.2961 37.8027 11.7348 37.4713 12.2574 37.238C12.7894 36.9953 13.3681 36.874 13.9934 36.874C14.5161 36.874 14.9734 36.972 15.3654 37.168C15.7668 37.3547 16.0748 37.6207 16.2894 37.966C16.5134 38.302 16.6254 38.6847 16.6254 39.114C16.6254 39.2633 16.6114 39.422 16.5834 39.59L16.4434 40.346C16.3968 40.5793 16.2754 40.7707 16.0794 40.92C15.8928 41.0693 15.6688 41.144 15.4074 41.144H11.8794L11.8514 41.34C11.8421 41.396 11.8374 41.48 11.8374 41.592C11.8374 41.9187 11.9354 42.1707 12.1314 42.348C12.3274 42.5253 12.6121 42.614 12.9854 42.614C13.3868 42.614 13.7134 42.5253 13.9654 42.348C14.2268 42.1707 14.3808 41.9233 14.4274 41.606C14.6328 41.5873 14.7681 41.578 14.8334 41.578C15.5428 41.578 15.8974 41.8253 15.8974 42.32C15.8974 42.6373 15.7528 42.936 15.4634 43.216C15.1741 43.496 14.7821 43.72 14.2874 43.888C13.8021 44.0467 13.2748 44.126 12.7054 44.126ZM14.8054 39.786L14.8474 39.59C14.8754 39.478 14.8894 39.3753 14.8894 39.282C14.8894 38.9927 14.7868 38.7687 14.5814 38.61C14.3854 38.4513 14.0961 38.372 13.7134 38.372C13.3214 38.372 12.9808 38.484 12.6914 38.708C12.4114 38.9227 12.2341 39.2167 12.1594 39.59L12.1174 39.786H14.8054ZM20.548 44.126C19.7173 44.126 19.0546 43.93 18.56 43.538C18.0653 43.1367 17.818 42.6093 17.818 41.956C17.818 41.8067 17.832 41.6573 17.86 41.508L18.182 39.646C18.2753 39.1047 18.49 38.624 18.826 38.204C19.162 37.784 19.5866 37.4573 20.1 37.224C20.6226 36.9907 21.192 36.874 21.808 36.874C22.5733 36.874 23.194 37.0327 23.67 37.35C24.1553 37.6673 24.398 38.0827 24.398 38.596C24.398 38.9507 24.23 39.24 23.894 39.464C23.5673 39.688 23.1426 39.8 22.62 39.8C22.6386 39.688 22.648 39.604 22.648 39.548C22.648 39.24 22.55 38.9927 22.354 38.806C22.1673 38.6193 21.9106 38.526 21.584 38.526C21.2106 38.526 20.884 38.6427 20.604 38.876C20.324 39.1 20.1513 39.3893 20.086 39.744L19.806 41.368C19.7966 41.4147 19.792 41.48 19.792 41.564C19.792 41.8347 19.89 42.054 20.086 42.222C20.2913 42.39 20.562 42.474 20.898 42.474C21.2713 42.474 21.5933 42.3573 21.864 42.124C22.144 41.8907 22.3213 41.5873 22.396 41.214C22.8253 41.214 23.1706 41.2933 23.432 41.452C23.7026 41.6013 23.838 41.7973 23.838 42.04C23.838 42.4507 23.698 42.8147 23.418 43.132C23.1473 43.44 22.76 43.6827 22.256 43.86C21.7613 44.0373 21.192 44.126 20.548 44.126ZM27.8439 44.126C27.2933 44.126 26.7986 44.028 26.3599 43.832C25.9213 43.6267 25.5806 43.356 25.3379 43.02C25.0953 42.6747 24.9739 42.292 24.9739 41.872C24.9739 41.7133 24.9833 41.592 25.0019 41.508L25.3239 39.646C25.4733 38.806 25.8839 38.134 26.5559 37.63C27.2279 37.126 28.0819 36.874 29.1179 36.874C29.6966 36.874 30.2006 36.9767 30.6299 37.182C31.0593 37.378 31.3906 37.6533 31.6239 38.008C31.8573 38.3533 31.9739 38.75 31.9739 39.198C31.9739 39.338 31.9599 39.4873 31.9319 39.646L31.6099 41.508C31.4699 42.3107 31.0546 42.95 30.3639 43.426C29.6826 43.8927 28.8426 44.126 27.8439 44.126ZM28.1379 42.474C28.5766 42.474 28.9313 42.376 29.2019 42.18C29.4819 41.984 29.6546 41.7133 29.7199 41.368L29.9999 39.744C30.0186 39.632 30.0279 39.5527 30.0279 39.506C30.0279 39.198 29.9206 38.96 29.7059 38.792C29.5006 38.6147 29.2113 38.526 28.8379 38.526C28.4086 38.526 28.0493 38.638 27.7599 38.862C27.4706 39.086 27.2933 39.38 27.2279 39.744L26.9479 41.368C26.9386 41.4147 26.9339 41.4893 26.9339 41.592C26.9339 41.872 27.0366 42.0913 27.2419 42.25C27.4566 42.3993 27.7553 42.474 28.1379 42.474ZM37.6018 38.526C37.0511 38.526 36.5705 38.6707 36.1598 38.96C35.7585 39.24 35.5205 39.604 35.4458 40.052L34.9278 43.006C34.8531 43.398 34.6478 43.6827 34.3118 43.86C33.9851 44.0373 33.4858 44.126 32.8138 44.126L33.8358 38.33C33.9198 37.854 34.1391 37.4947 34.4938 37.252C34.8485 37 35.3245 36.874 35.9218 36.874L35.7818 37.7C35.5951 37.8867 35.4505 38.0453 35.3478 38.176L35.4318 38.232C36.1971 37.3267 37.0091 36.874 37.8678 36.874C38.2131 36.874 38.4791 36.958 38.6658 37.126C38.8618 37.2847 38.9598 37.5133 38.9598 37.812C38.9598 37.9707 38.9271 38.134 38.8618 38.302C38.8058 38.47 38.7218 38.6193 38.6098 38.75C38.3951 38.6007 38.0591 38.526 37.6018 38.526ZM41.3606 44.126C40.9313 44.126 40.5439 44.0327 40.1986 43.846C39.8626 43.6593 39.5966 43.4073 39.4006 43.09C39.2139 42.7633 39.1206 42.404 39.1206 42.012C39.1206 41.8627 39.1346 41.718 39.1626 41.578L39.5406 39.422C39.6246 38.9273 39.8206 38.4887 40.1286 38.106C40.4366 37.714 40.8239 37.4107 41.2906 37.196C41.7666 36.9813 42.2846 36.874 42.8446 36.874C43.1806 36.874 43.5166 36.944 43.8526 37.084C44.1886 37.224 44.4546 37.4013 44.6506 37.616L44.7206 37.546C44.6739 37.4713 44.5853 37.378 44.4546 37.266L44.8046 35.334C44.8793 34.9233 45.0986 34.6107 45.4626 34.396C45.8359 34.1813 46.3399 34.074 46.9746 34.074L45.4206 42.852C45.3459 43.244 45.1313 43.5567 44.7766 43.79C44.4219 44.014 43.9739 44.126 43.4326 44.126L43.5586 43.37C43.7173 43.2113 43.8293 43.0853 43.8946 42.992L43.8386 42.936C43.4559 43.3653 43.0733 43.6733 42.6906 43.86C42.3079 44.0373 41.8646 44.126 41.3606 44.126ZM42.2566 42.474C42.6393 42.474 42.9706 42.3853 43.2506 42.208C43.5306 42.0213 43.6939 41.788 43.7406 41.508L44.0906 39.492C44.0999 39.464 44.1046 39.4173 44.1046 39.352C44.1046 39.1093 43.9973 38.9133 43.7826 38.764C43.5679 38.6053 43.2879 38.526 42.9426 38.526C42.5226 38.526 42.1819 38.6147 41.9206 38.792C41.6593 38.9693 41.5006 39.2213 41.4446 39.548L41.1086 41.438C41.0899 41.55 41.0806 41.6247 41.0806 41.662C41.0806 41.9233 41.1786 42.124 41.3746 42.264C41.5799 42.404 41.8739 42.474 42.2566 42.474ZM50.2833 44.126C49.406 44.126 48.6966 43.9907 48.1553 43.72C47.6233 43.44 47.3573 43.0667 47.3573 42.6C47.3573 42.2453 47.488 41.97 47.7493 41.774C48.0106 41.578 48.384 41.48 48.8693 41.48C48.8786 41.8347 49.0093 42.124 49.2613 42.348C49.5226 42.5627 49.8586 42.67 50.2693 42.67C50.7733 42.67 51.1653 42.6047 51.4453 42.474C51.7253 42.334 51.8653 42.1427 51.8653 41.9C51.8653 41.7413 51.7533 41.5967 51.5293 41.466C51.3146 41.3353 50.96 41.2093 50.4653 41.088C49.5506 40.864 48.9066 40.6027 48.5333 40.304C48.1693 40.0053 47.9873 39.6273 47.9873 39.17C47.9873 38.442 48.2626 37.8773 48.8133 37.476C49.3733 37.0747 50.1526 36.874 51.1513 36.874C51.9913 36.874 52.682 37.0093 53.2233 37.28C53.7646 37.5507 54.0353 37.9053 54.0353 38.344C54.0353 38.68 53.9233 38.9273 53.6993 39.086C53.4846 39.2353 53.1206 39.3147 52.6073 39.324C52.542 38.96 52.3973 38.694 52.1733 38.526C51.9493 38.358 51.618 38.274 51.1793 38.274C50.806 38.274 50.484 38.3393 50.2133 38.47C49.952 38.5913 49.8213 38.7407 49.8213 38.918C49.8213 39.058 49.9146 39.1793 50.1013 39.282C50.288 39.3847 50.61 39.4827 51.0673 39.576C52.822 39.9493 53.6993 40.6773 53.6993 41.76C53.6993 42.516 53.396 43.0993 52.7893 43.51C52.192 43.9207 51.3566 44.126 50.2833 44.126Z" fill="white"/>
</svg>
