<svg width="91" height="11" viewBox="0 0 91 11" fill="none" xmlns="http://www.w3.org/2000/svg">
<path d="M1.708 1.138C1.75467 0.876666 1.89467 0.657333 2.128 0.48C2.36133 0.293333 2.62267 0.199999 2.912 0.199999H9.17C9.06733 0.806666 8.88533 1.25467 8.624 1.544C8.36267 1.824 8.00333 1.964 7.546 1.964H3.612L3.234 4.176H6.902C6.79933 4.78267 6.61733 5.23067 6.356 5.52C6.09467 5.8 5.73533 5.94 5.278 5.94H2.912L2.506 8.236H6.734C7.08867 8.236 7.35 8.32467 7.518 8.502C7.69533 8.67 7.784 8.94067 7.784 9.314C7.784 9.49133 7.76067 9.72 7.714 10H1.176C0.914667 10 0.7 9.93 0.532 9.79C0.373333 9.64067 0.294 9.454 0.294 9.23C0.294 9.15533 0.298667 9.09933 0.308 9.062L1.708 1.138ZM11.8291 10.126C10.9985 10.126 10.3358 9.93 9.84113 9.538C9.34646 9.13667 9.09913 8.60933 9.09913 7.956C9.09913 7.80667 9.11313 7.65733 9.14113 7.508L9.46313 5.646C9.55646 5.10467 9.77113 4.624 10.1071 4.204C10.4431 3.784 10.8678 3.45733 11.3811 3.224C11.9038 2.99067 12.4731 2.874 13.0891 2.874C13.8545 2.874 14.4751 3.03267 14.9511 3.35C15.4365 3.66733 15.6791 4.08267 15.6791 4.596C15.6791 4.95067 15.5111 5.24 15.1751 5.464C14.8485 5.688 14.4238 5.8 13.9011 5.8C13.9198 5.688 13.9291 5.604 13.9291 5.548C13.9291 5.24 13.8311 4.99267 13.6351 4.806C13.4485 4.61933 13.1918 4.526 12.8651 4.526C12.4918 4.526 12.1651 4.64267 11.8851 4.876C11.6051 5.1 11.4325 5.38933 11.3671 5.744L11.0871 7.368C11.0778 7.41467 11.0731 7.48 11.0731 7.564C11.0731 7.83467 11.1711 8.054 11.3671 8.222C11.5725 8.39 11.8431 8.474 12.1791 8.474C12.5525 8.474 12.8745 8.35733 13.1451 8.124C13.4251 7.89067 13.6025 7.58733 13.6771 7.214C14.1065 7.214 14.4518 7.29333 14.7131 7.452C14.9838 7.60133 15.1191 7.79733 15.1191 8.04C15.1191 8.45067 14.9791 8.81467 14.6991 9.132C14.4285 9.44 14.0411 9.68267 13.5371 9.86C13.0425 10.0373 12.4731 10.126 11.8291 10.126ZM17.9546 1.53C18.0386 1.06333 18.2719 0.704 18.6546 0.451999C19.0372 0.199999 19.5319 0.0739993 20.1386 0.0739993L19.4946 3.7C19.3172 3.87733 19.1726 4.036 19.0606 4.176L19.1446 4.232C19.9566 3.32667 20.8479 2.874 21.8186 2.874C22.4066 2.874 22.8872 3.06533 23.2606 3.448C23.6432 3.83067 23.8346 4.316 23.8346 4.904C23.8346 5.044 23.8206 5.19333 23.7926 5.352L23.1486 9.006C23.0739 9.38867 22.8639 9.67333 22.5186 9.86C22.1826 10.0373 21.6879 10.126 21.0346 10.126L21.8186 5.646C21.8372 5.51533 21.8466 5.42667 21.8466 5.38C21.8466 5.10933 21.7626 4.89933 21.5946 4.75C21.4266 4.60067 21.1839 4.526 20.8666 4.526C20.4186 4.526 20.0266 4.67067 19.6906 4.96C19.3546 5.24933 19.1492 5.61333 19.0746 6.052L18.5566 9.006C18.4912 9.398 18.2859 9.68267 17.9406 9.86C17.6046 10.0373 17.1052 10.126 16.4426 10.126L17.9546 1.53ZM27.4611 10.126C26.9104 10.126 26.4158 10.028 25.9771 9.832C25.5384 9.62667 25.1978 9.356 24.9551 9.02C24.7124 8.67467 24.5911 8.292 24.5911 7.872C24.5911 7.71333 24.6004 7.592 24.6191 7.508L24.9411 5.646C25.0904 4.806 25.5011 4.134 26.1731 3.63C26.8451 3.126 27.6991 2.874 28.7351 2.874C29.3138 2.874 29.8178 2.97667 30.2471 3.182C30.6764 3.378 31.0078 3.65333 31.2411 4.008C31.4744 4.35333 31.5911 4.75 31.5911 5.198C31.5911 5.338 31.5771 5.48733 31.5491 5.646L31.2271 7.508C31.0871 8.31067 30.6718 8.95 29.9811 9.426C29.2998 9.89267 28.4598 10.126 27.4611 10.126ZM27.7551 8.474C28.1938 8.474 28.5484 8.376 28.8191 8.18C29.0991 7.984 29.2718 7.71333 29.3371 7.368L29.6171 5.744C29.6358 5.632 29.6451 5.55267 29.6451 5.506C29.6451 5.198 29.5378 4.96 29.3231 4.792C29.1178 4.61467 28.8284 4.526 28.4551 4.526C28.0258 4.526 27.6664 4.638 27.3771 4.862C27.0878 5.086 26.9104 5.38 26.8451 5.744L26.5651 7.368C26.5558 7.41467 26.5511 7.48933 26.5511 7.592C26.5511 7.872 26.6538 8.09133 26.8591 8.25C27.0738 8.39933 27.3724 8.474 27.7551 8.474ZM38.0424 1.138C38.089 0.867333 38.229 0.643333 38.4624 0.465999C38.6957 0.288666 38.957 0.199999 39.2464 0.199999H42.9144C43.8104 0.199999 44.4964 0.405333 44.9724 0.816C45.4577 1.21733 45.7004 1.796 45.7004 2.552C45.7004 3.27067 45.5464 3.88667 45.2384 4.4C44.9304 4.91333 44.4777 5.30067 43.8804 5.562V5.618C44.487 5.926 44.7904 6.43 44.7904 7.13C44.7904 7.23267 44.7717 7.41467 44.7344 7.676L44.5664 8.642C44.4824 9.12733 44.2397 9.496 43.8384 9.748C43.4464 10 42.9144 10.126 42.2424 10.126L42.6624 7.746C42.6904 7.578 42.7044 7.41933 42.7044 7.27C42.7044 6.97133 42.6297 6.752 42.4804 6.612C42.331 6.46267 42.1024 6.388 41.7944 6.388H39.1484L38.7564 8.642C38.6724 9.12733 38.4344 9.496 38.0424 9.748C37.6597 10 37.1324 10.126 36.4604 10.126L38.0424 1.138ZM42.0184 4.638C42.5037 4.638 42.891 4.47933 43.1804 4.162C43.4697 3.84467 43.6144 3.41533 43.6144 2.874C43.6144 2.258 43.241 1.95 42.4944 1.95H39.9324L39.4564 4.638H42.0184ZM49.0398 10.126C48.5171 10.126 48.0411 10.028 47.6118 9.832C47.1918 9.62667 46.8605 9.35133 46.6178 9.006C46.3845 8.66067 46.2678 8.278 46.2678 7.858C46.2678 7.69 46.2771 7.564 46.2958 7.48L46.6178 5.688C46.7111 5.13733 46.9305 4.652 47.2758 4.232C47.6305 3.80267 48.0691 3.47133 48.5918 3.238C49.1238 2.99533 49.7025 2.874 50.3278 2.874C50.8505 2.874 51.3078 2.972 51.6998 3.168C52.1011 3.35467 52.4091 3.62067 52.6238 3.966C52.8478 4.302 52.9598 4.68467 52.9598 5.114C52.9598 5.26333 52.9458 5.422 52.9178 5.59L52.7778 6.346C52.7311 6.57933 52.6098 6.77067 52.4138 6.92C52.2271 7.06933 52.0031 7.144 51.7418 7.144H48.2138L48.1858 7.34C48.1765 7.396 48.1718 7.48 48.1718 7.592C48.1718 7.91867 48.2698 8.17067 48.4658 8.348C48.6618 8.52533 48.9465 8.614 49.3198 8.614C49.7211 8.614 50.0478 8.52533 50.2998 8.348C50.5611 8.17067 50.7151 7.92333 50.7618 7.606C50.9671 7.58733 51.1025 7.578 51.1678 7.578C51.8771 7.578 52.2318 7.82533 52.2318 8.32C52.2318 8.63733 52.0871 8.936 51.7978 9.216C51.5085 9.496 51.1165 9.72 50.6218 9.888C50.1365 10.0467 49.6091 10.126 49.0398 10.126ZM51.1398 5.786L51.1818 5.59C51.2098 5.478 51.2238 5.37533 51.2238 5.282C51.2238 4.99267 51.1211 4.76867 50.9158 4.61C50.7198 4.45133 50.4305 4.372 50.0478 4.372C49.6558 4.372 49.3151 4.484 49.0258 4.708C48.7458 4.92267 48.5685 5.21667 48.4938 5.59L48.4518 5.786H51.1398ZM56.8823 10.126C56.0517 10.126 55.389 9.93 54.8943 9.538C54.3997 9.13667 54.1523 8.60933 54.1523 7.956C54.1523 7.80667 54.1663 7.65733 54.1943 7.508L54.5163 5.646C54.6097 5.10467 54.8243 4.624 55.1603 4.204C55.4963 3.784 55.921 3.45733 56.4343 3.224C56.957 2.99067 57.5263 2.874 58.1423 2.874C58.9077 2.874 59.5283 3.03267 60.0043 3.35C60.4897 3.66733 60.7323 4.08267 60.7323 4.596C60.7323 4.95067 60.5643 5.24 60.2283 5.464C59.9017 5.688 59.477 5.8 58.9543 5.8C58.973 5.688 58.9823 5.604 58.9823 5.548C58.9823 5.24 58.8843 4.99267 58.6883 4.806C58.5017 4.61933 58.245 4.526 57.9183 4.526C57.545 4.526 57.2183 4.64267 56.9383 4.876C56.6583 5.1 56.4857 5.38933 56.4203 5.744L56.1403 7.368C56.131 7.41467 56.1263 7.48 56.1263 7.564C56.1263 7.83467 56.2243 8.054 56.4203 8.222C56.6257 8.39 56.8963 8.474 57.2323 8.474C57.6057 8.474 57.9277 8.35733 58.1983 8.124C58.4783 7.89067 58.6557 7.58733 58.7303 7.214C59.1597 7.214 59.505 7.29333 59.7663 7.452C60.037 7.60133 60.1723 7.79733 60.1723 8.04C60.1723 8.45067 60.0323 8.81467 59.7523 9.132C59.4817 9.44 59.0943 9.68267 58.5903 9.86C58.0957 10.0373 57.5263 10.126 56.8823 10.126ZM64.1783 10.126C63.6276 10.126 63.133 10.028 62.6943 9.832C62.2556 9.62667 61.915 9.356 61.6723 9.02C61.4296 8.67467 61.3083 8.292 61.3083 7.872C61.3083 7.71333 61.3176 7.592 61.3363 7.508L61.6583 5.646C61.8076 4.806 62.2183 4.134 62.8903 3.63C63.5623 3.126 64.4163 2.874 65.4523 2.874C66.031 2.874 66.535 2.97667 66.9643 3.182C67.3936 3.378 67.725 3.65333 67.9583 4.008C68.1916 4.35333 68.3083 4.75 68.3083 5.198C68.3083 5.338 68.2943 5.48733 68.2663 5.646L67.9443 7.508C67.8043 8.31067 67.389 8.95 66.6983 9.426C66.017 9.89267 65.177 10.126 64.1783 10.126ZM64.4723 8.474C64.911 8.474 65.2656 8.376 65.5363 8.18C65.8163 7.984 65.989 7.71333 66.0543 7.368L66.3343 5.744C66.353 5.632 66.3623 5.55267 66.3623 5.506C66.3623 5.198 66.255 4.96 66.0403 4.792C65.835 4.61467 65.5456 4.526 65.1723 4.526C64.743 4.526 64.3836 4.638 64.0943 4.862C63.805 5.086 63.6276 5.38 63.5623 5.744L63.2823 7.368C63.273 7.41467 63.2683 7.48933 63.2683 7.592C63.2683 7.872 63.371 8.09133 63.5763 8.25C63.791 8.39933 64.0896 8.474 64.4723 8.474ZM73.9362 4.526C73.3855 4.526 72.9049 4.67067 72.4942 4.96C72.0929 5.24 71.8549 5.604 71.7802 6.052L71.2622 9.006C71.1875 9.398 70.9822 9.68267 70.6462 9.86C70.3195 10.0373 69.8202 10.126 69.1482 10.126L70.1702 4.33C70.2542 3.854 70.4735 3.49467 70.8282 3.252C71.1829 3 71.6589 2.874 72.2562 2.874L72.1162 3.7C71.9295 3.88667 71.7849 4.04533 71.6822 4.176L71.7662 4.232C72.5315 3.32667 73.3435 2.874 74.2022 2.874C74.5475 2.874 74.8135 2.958 75.0002 3.126C75.1962 3.28467 75.2942 3.51333 75.2942 3.812C75.2942 3.97067 75.2615 4.134 75.1962 4.302C75.1402 4.47 75.0562 4.61933 74.9442 4.75C74.7295 4.60067 74.3935 4.526 73.9362 4.526ZM77.695 10.126C77.2656 10.126 76.8783 10.0327 76.533 9.846C76.197 9.65933 75.931 9.40733 75.735 9.09C75.5483 8.76333 75.455 8.404 75.455 8.012C75.455 7.86267 75.469 7.718 75.497 7.578L75.875 5.422C75.959 4.92733 76.155 4.48867 76.463 4.106C76.771 3.714 77.1583 3.41067 77.625 3.196C78.101 2.98133 78.619 2.874 79.179 2.874C79.515 2.874 79.851 2.944 80.187 3.084C80.523 3.224 80.789 3.40133 80.985 3.616L81.055 3.546C81.0083 3.47133 80.9196 3.378 80.789 3.266L81.139 1.334C81.2136 0.923333 81.433 0.610666 81.797 0.395999C82.1703 0.181333 82.6743 0.0739993 83.309 0.0739993L81.755 8.852C81.6803 9.244 81.4656 9.55667 81.111 9.79C80.7563 10.014 80.3083 10.126 79.767 10.126L79.893 9.37C80.0516 9.21133 80.1636 9.08533 80.229 8.992L80.173 8.936C79.7903 9.36533 79.4076 9.67333 79.025 9.86C78.6423 10.0373 78.199 10.126 77.695 10.126ZM78.591 8.474C78.9736 8.474 79.305 8.38533 79.585 8.208C79.865 8.02133 80.0283 7.788 80.075 7.508L80.425 5.492C80.4343 5.464 80.439 5.41733 80.439 5.352C80.439 5.10933 80.3316 4.91333 80.117 4.764C79.9023 4.60533 79.6223 4.526 79.277 4.526C78.857 4.526 78.5163 4.61467 78.255 4.792C77.9936 4.96933 77.835 5.22133 77.779 5.548L77.443 7.438C77.4243 7.55 77.415 7.62467 77.415 7.662C77.415 7.92333 77.513 8.124 77.709 8.264C77.9143 8.404 78.2083 8.474 78.591 8.474ZM86.6177 10.126C85.7403 10.126 85.031 9.99067 84.4897 9.72C83.9577 9.44 83.6917 9.06667 83.6917 8.6C83.6917 8.24533 83.8223 7.97 84.0837 7.774C84.345 7.578 84.7183 7.48 85.2037 7.48C85.213 7.83467 85.3437 8.124 85.5957 8.348C85.857 8.56267 86.193 8.67 86.6037 8.67C87.1077 8.67 87.4997 8.60467 87.7797 8.474C88.0597 8.334 88.1997 8.14267 88.1997 7.9C88.1997 7.74133 88.0877 7.59667 87.8637 7.466C87.649 7.33533 87.2943 7.20933 86.7997 7.088C85.885 6.864 85.241 6.60267 84.8677 6.304C84.5037 6.00533 84.3217 5.62733 84.3217 5.17C84.3217 4.442 84.597 3.87733 85.1477 3.476C85.7077 3.07467 86.487 2.874 87.4857 2.874C88.3257 2.874 89.0163 3.00933 89.5577 3.28C90.099 3.55067 90.3697 3.90533 90.3697 4.344C90.3697 4.68 90.2577 4.92733 90.0337 5.086C89.819 5.23533 89.455 5.31467 88.9417 5.324C88.8763 4.96 88.7317 4.694 88.5077 4.526C88.2837 4.358 87.9523 4.274 87.5137 4.274C87.1403 4.274 86.8183 4.33933 86.5477 4.47C86.2863 4.59133 86.1557 4.74067 86.1557 4.918C86.1557 5.058 86.249 5.17933 86.4357 5.282C86.6223 5.38467 86.9443 5.48267 87.4017 5.576C89.1563 5.94933 90.0337 6.67733 90.0337 7.76C90.0337 8.516 89.7303 9.09933 89.1237 9.51C88.5263 9.92067 87.691 10.126 86.6177 10.126Z" fill="white"/>
</svg>
